<svg width="47" height="46" viewBox="0 0 47 46" fill="none" xmlns="http://www.w3.org/2000/svg">
<path d="M23.4998 3.8335C12.7075 3.8335 3.9165 12.4374 3.9165 23.0002C3.9165 33.5629 12.7075 42.1668 23.4998 42.1668C34.2922 42.1668 43.0832 33.5629 43.0832 23.0002C43.0832 12.4374 34.2922 3.8335 23.4998 3.8335ZM23.4998 7.66683C32.1755 7.66683 39.1665 14.5091 39.1665 23.0002C39.1665 30.6946 33.4194 37.0168 25.8866 38.1388V27.571H30.4458L31.1611 23.0376H25.8866V20.5594C25.8866 18.6753 26.5137 17.0031 28.3153 17.0031H31.207V13.0462C30.6978 12.9791 29.6232 12.8328 27.5924 12.8328C23.3507 12.8328 20.8645 15.0255 20.8645 20.0203V23.0376H16.5042V27.571H20.8645V38.1014C13.4542 36.8785 7.83317 30.6098 7.83317 23.0002C7.83317 14.5091 14.8242 7.66683 23.4998 7.66683Z" fill="#16205F"/>
</svg>
