<svg width="46" height="46" viewBox="0 0 46 46" fill="none" xmlns="http://www.w3.org/2000/svg">
<path d="M15.3333 5.75C10.0491 5.75 5.75 10.0491 5.75 15.3333V30.6667C5.75 35.9509 10.0491 40.25 15.3333 40.25H30.6667C35.9509 40.25 40.25 35.9509 40.25 30.6667V15.3333C40.25 10.0491 35.9509 5.75 30.6667 5.75H15.3333ZM15.3333 9.58333H30.6667C33.8368 9.58333 36.4167 12.1632 36.4167 15.3333V30.6667C36.4167 33.8368 33.8368 36.4167 30.6667 36.4167H15.3333C12.1632 36.4167 9.58333 33.8368 9.58333 30.6667V15.3333C9.58333 12.1632 12.1632 9.58333 15.3333 9.58333ZM32.5833 11.5C32.075 11.5 31.5875 11.7019 31.228 12.0614C30.8686 12.4208 30.6667 12.9083 30.6667 13.4167C30.6667 13.925 30.8686 14.4125 31.228 14.772C31.5875 15.1314 32.075 15.3333 32.5833 15.3333C33.0917 15.3333 33.5792 15.1314 33.9386 14.772C34.2981 14.4125 34.5 13.925 34.5 13.4167C34.5 12.9083 34.2981 12.4208 33.9386 12.0614C33.5792 11.7019 33.0917 11.5 32.5833 11.5ZM23 13.4167C17.7157 13.4167 13.4167 17.7157 13.4167 23C13.4167 28.2843 17.7157 32.5833 23 32.5833C28.2843 32.5833 32.5833 28.2843 32.5833 23C32.5833 17.7157 28.2843 13.4167 23 13.4167ZM23 17.25C26.1702 17.25 28.75 19.8298 28.75 23C28.75 26.1702 26.1702 28.75 23 28.75C19.8298 28.75 17.25 26.1702 17.25 23C17.25 19.8298 19.8298 17.25 23 17.25Z" fill="#16205F"/>
</svg>
