<svg width="46" height="46" viewBox="0 0 46 46" fill="none" xmlns="http://www.w3.org/2000/svg">
<path d="M9.58333 5.75C7.46542 5.75 5.75 7.46542 5.75 9.58333V36.4167C5.75 38.5346 7.46542 40.25 9.58333 40.25H36.4167C38.5346 40.25 40.25 38.5346 40.25 36.4167V9.58333C40.25 7.46542 38.5346 5.75 36.4167 5.75H9.58333ZM9.58333 9.58333H36.4167V36.4167H9.58333V9.58333ZM14.9103 12.1064C13.2677 12.1064 12.2824 13.0939 12.2824 14.4087C12.2824 15.7235 13.2679 16.7072 14.7456 16.7072C16.3882 16.7072 17.3735 15.7235 17.3735 14.4087C17.3735 13.0939 16.3881 12.1064 14.9103 12.1064ZM12.4134 19.1667V32.5833H17.25V19.1667H12.4134ZM21.2406 19.1667V32.5833H26.0771V25.2498C26.0771 23.0668 27.6347 22.7529 28.1024 22.7529C28.57 22.7529 29.8206 23.222 29.8206 25.2498V32.5833H34.5V25.2498C34.5 21.0389 32.6288 19.1667 30.2886 19.1667C27.9483 19.1667 26.7001 19.9459 26.0771 21.0384V19.1667H21.2406Z" fill="#16205F"/>
</svg>
