<svg width="47" height="46" viewBox="0 0 47 46" fill="none" xmlns="http://www.w3.org/2000/svg">
<path d="M9.79167 5.75C7.63162 5.75 5.875 7.46925 5.875 9.58333V36.4167C5.875 38.5308 7.63162 40.25 9.79167 40.25H37.2083C39.3684 40.25 41.125 38.5308 41.125 36.4167V9.58333C41.125 7.46925 39.3684 5.75 37.2083 5.75H9.79167ZM9.79167 9.58333H37.2083L37.2122 36.4167H9.79167V9.58333ZM28.5259 13.6338C25.839 13.6338 23.6568 15.7715 23.6568 18.3993C23.6568 18.8918 23.8251 19.2208 23.8251 19.5485C19.7968 19.3856 16.2725 17.4147 13.9225 14.6221C13.4192 15.2795 13.2493 16.0983 13.2493 16.9206C13.2493 18.5632 14.0899 19.8809 15.4333 21.0309C14.5952 20.8661 13.9211 20.6998 13.2493 20.3721C13.2493 22.6721 14.9271 24.4802 17.1086 24.9728C16.6054 25.1377 16.2694 25.1375 15.7661 25.1375C15.5977 25.1375 15.2595 24.9728 14.9246 24.9728C15.5964 26.7802 17.2755 28.2559 19.4571 28.2559C17.7788 29.4059 15.5954 30.2287 13.4138 30.2287H12.2396C14.4212 31.5416 16.9405 32.3662 19.6254 32.3662C28.5221 32.3662 33.3911 25.136 33.3911 18.8934V18.2345C34.2312 17.5771 35.0678 16.7566 35.7434 15.7676C34.7368 16.2621 33.8966 16.4263 32.8901 16.5911C33.8966 15.9356 34.7354 15.1132 35.0702 13.9632C34.2301 14.4558 33.2236 14.9476 32.0486 15.1125C31.2085 14.1273 29.8693 13.6338 28.5259 13.6338Z" fill="#16205F"/>
</svg>
