<svg width="46" height="46" viewBox="0 0 46 46" fill="none" xmlns="http://www.w3.org/2000/svg">
<path d="M23.0002 7.6665C23.0002 7.6665 11.0125 7.66644 8.02246 8.46761C6.37221 8.90844 5.07544 10.2071 4.6346 11.8555C3.83344 14.8455 3.8335 22.9998 3.8335 22.9998C3.8335 22.9998 3.83344 31.1542 4.6346 34.1442C5.07544 35.7945 6.37413 37.0912 8.02246 37.5321C11.0125 38.3332 23.0002 38.3332 23.0002 38.3332C23.0002 38.3332 34.9879 38.3332 37.9779 37.5321C39.6262 37.0912 40.9249 35.7925 41.3657 34.1442C42.1669 31.1542 42.1668 22.9998 42.1668 22.9998C42.1668 22.9998 42.1669 14.8455 41.3657 11.8555C40.9249 10.2071 39.6262 8.90844 37.9779 8.46761C34.9879 7.66644 23.0002 7.6665 23.0002 7.6665ZM23.0002 11.4998C28.524 11.4998 35.441 11.7559 36.9858 12.1699C37.3098 12.2562 37.5752 12.5217 37.6634 12.8475C38.1253 14.5687 38.3335 19.822 38.3335 22.9998C38.3335 26.1777 38.1253 31.4291 37.6634 33.1522C37.5772 33.4761 37.3117 33.7416 36.9858 33.8297C35.4429 34.2437 28.524 34.4998 23.0002 34.4998C17.4782 34.4998 10.5612 34.2437 9.01449 33.8297C8.69057 33.7435 8.42508 33.478 8.33691 33.1522C7.875 31.431 7.66683 26.1777 7.66683 22.9998C7.66683 19.822 7.875 14.5687 8.33691 12.8437C8.42316 12.5217 8.68865 12.2562 9.01449 12.1699C10.5574 11.7559 17.4763 11.4998 23.0002 11.4998ZM19.1668 16.3589V29.6408L30.6668 22.9998L19.1668 16.3589Z" fill="#16205F"/>
</svg>
